<svg xmlns="http://www.w3.org/2000/svg" width="621" height="216" fill="none"><mask id="a" width="579" height="160" x="21" y="26" maskUnits="userSpaceOnUse" style="mask-type:alpha"><path fill="#D9D9D9" d="M599.625 186h-576v-13.943a21.668 21.668 0 0 0 1.922 3.599c3.132 4.698 7.813 7.355 13.59 8.065h.002l.232.028.235.028.233-.026.232-.026v-.001c6.13-.682 11.188-3.2 14.638-7.835 3.358-4.512 4.827-10.543 4.916-17.588v-.25c.089 7.058 1.406 13.081 4.422 17.605 3.132 4.698 7.813 7.355 13.59 8.065h.002l.232.028.235.028.233-.026.232-.026v-.001c6.13-.682 11.188-3.2 14.638-7.835 1.834-2.465 3.103-5.383 3.893-8.671.713 3.191 1.838 6.028 3.445 8.438 3.132 4.698 7.813 7.355 13.591 8.065h.001l.232.028.235.028.233-.026.232-.026-.001-.001c6.131-.682 11.189-3.2 14.639-7.835 3.358-4.512 4.827-10.543 4.916-17.588v-21.35l-.831-.598-16.5-11.88-1.169-.842v-12.064l1.015-.596 16.75-9.854.985-.58V84.846c.465-9.845-.393-17.981-2.991-23.994l1.404.061 1.913.083c1.081.047 1.486.262 1.581.323.006.013.017.034.027.066.038.121.096.4.071.925l1.997.095-1.998-.095v.012l-.002.047-.002.041v95.641c.088 6.997 1.26 12.941 3.952 17.394 2.822 4.667 7.137 7.387 12.581 8.028h.004l.262.03.256.03.256-.036.26-.037.007-.001c5.189-.757 9.268-3.48 11.93-7.988 2.544-4.31 3.654-10.003 3.742-16.668V62.66l-.002-.043-.002-.045v-.004c-.04-.891.095-1.264.146-1.369.016-.009.04-.022.076-.037.072-.03.19-.068.365-.1l1.563.083 1.894.1c.33.017.471.076.512.097a.283.283 0 0 1 .109.101c.156.21.513.918.589 2.633v103.297c-.064 1.223-.361 1.643-.447 1.742l-.093.085a.991.991 0 0 1-.178.103c-.166.076-.454.169-.93.217l-3.602.361V181h44v-58.5h-10.781l-.438 3.504c-1.685 13.485-3.67 23.5-5.893 30.21l-.216.64a49.074 49.074 0 0 1-.616 1.684L196.125 64c0-1.733.346-2.453.505-2.676l.001.001a.52.52 0 0 1 .192-.172c.096-.05.3-.133.701-.172h.001l1.8-.181 1.8-.18V49.5h-69.75v10.248l-.115-.236c-1.582-3.139-3.745-5.7-6.568-7.455a16.538 16.538 0 0 0-5.173-2.091l.393-.394-4.726-.072c-3.415-.052-6.593.732-9.356 2.516-2.748 1.774-4.818 4.367-6.316 7.513-.985 2.068-1.746 4.425-2.305 7.053-.594-2.63-1.403-4.994-2.45-7.07-1.581-3.139-3.744-5.7-6.567-7.455a16.527 16.527 0 0 0-5.173-2.091l.393-.394-4.726-.072c-3.415-.052-6.593.732-9.356 2.516-2.748 1.774-4.818 4.367-6.316 7.513-2.239 4.701-3.328 10.901-3.491 18.373-.367-7.479-1.611-13.674-3.939-18.367-1.535-3.095-3.599-5.652-6.29-7.424a15.487 15.487 0 0 0-4.823-2.097l.441-.442-4.726-.072c-3.415-.052-6.593.732-9.356 2.516-2.748 1.774-4.818 4.367-6.316 7.513-.32.672-.615 1.376-.889 2.109V26h576v160ZM441.936 49.5c-3.415-.052-6.593.732-9.356 2.516-2.748 1.774-4.818 4.367-6.316 7.513-2.922 6.136-3.888 14.826-3.389 25.566v72.956c.088 7.058 1.406 13.081 4.422 17.605 3.132 4.698 7.813 7.355 13.591 8.065h.002l.232.028.234.028.233-.026.232-.026-.001-.001c6.131-.682 11.189-3.2 14.639-7.835 1.35-1.814 2.394-3.874 3.166-6.146v10.958l1.976.025 24.5.298 2.024.025V181h19v-.25h43.75v-.043l1.476.019 24.5.298 2.024.025V181h19v-12.379l-2.391.479-.009.001a23.654 23.654 0 0 1-.256-1.607c-.458-3.588-.595-9.328-.346-17.371.256-8.264-.182-15.318-1.396-21.074-1.061-5.026-2.767-9.32-5.352-12.55v-.461c5.161-3.14 7.193-9.51 7.495-16.862h.001l.002-.04.002-.047V70.428l-.08-.276-.08-.273c-2.949-10.134-8.833-17.128-17.901-19.95h-.003l-.29-.09-.289-.089H458.125v9.998l-.115-.236c-1.582-3.139-3.745-5.7-6.568-7.455a16.538 16.538 0 0 0-5.173-2.091l.393-.394-4.726-.072ZM40.376 181.674l-.53.063c.178-.019.355-.041.53-.064l.524-.073c-.174.026-.348.051-.524.074Zm38.5 0-.53.063c.178-.019.355-.041.53-.064l.524-.073c-.174.026-.348.051-.524.074Zm36.5 0-.53.063c.178-.019.355-.041.53-.064l.524-.073c-.174.026-.348.051-.524.074Zm326.75 0v-.001.001Zm-400.201-.252-.51.094c.171-.03.34-.061.509-.094l.502-.104a25.48 25.48 0 0 1-.501.104Zm38.5 0-.51.094c.171-.03.34-.061.509-.094l.502-.104a25.48 25.48 0 0 1-.501.104Zm36.5 0-.51.094c.171-.03.341-.061.509-.094l.502-.104a26.1 26.1 0 0 1-.501.104Zm326.75 0-.51.094c.171-.03.341-.061.509-.094l.502-.104a26.1 26.1 0 0 1-.501.104ZM214.125 49v52.25h11.25l.242-3.742.008-.115v70.523l.008.086.007.079c.099 1.258-.113 1.926-.316 2.282l-.086.135c-.216.304-.727.782-2.083 1.121h-.001l-3.029.758v8.873h31.25v-8.805l-1.473-.402-1.473-.402h-.001c-1.162-.317-1.681-.763-1.951-1.131-.286-.39-.602-1.115-.602-2.51v-66.75h11.25V49h-43Zm76 0v52.25h11.25l.242-3.742.008-.115v70.523l.008.086.007.079c.099 1.258-.113 1.926-.316 2.282l-.086.135c-.216.304-.727.782-2.083 1.121h-.001l-3.029.758v8.873h31.25v-8.805l-1.473-.402-1.473-.402h-.001c-1.162-.317-1.681-.763-1.951-1.131-.286-.39-.602-1.115-.602-2.51v-66.75h11.25V62.222l.829-.138 1.899-.317c.024.09.05.192.074.308.111.54.198 1.327.198 2.425v102.153c-.046 1.09-.155 1.847-.265 2.347h-2.735v11.701l1.976.025 24.5.298 2.024.025V181h62.75v-9.281l-1.752-.219-1.611-.201-.047-.352a236.431 236.431 0 0 1-.625-5.728c-.507-5.08-1.187-12.606-2.041-22.59-1.707-19.964-4.102-49.692-7.186-89.19l-.144-1.845-.145-1.844h-20.47l-.111 1.883-.11 1.88c-2.333 39.497-4.198 69.219-5.592 89.176-.697 9.983-1.275 17.5-1.735 22.567-.231 2.54-.428 4.423-.591 5.68-.013.101-.029.198-.041.289a2.247 2.247 0 0 1-.295.056l-1.254.157v-2.817l-2.391.479-.009.001a23.654 23.654 0 0 1-.256-1.607c-.458-3.588-.595-9.328-.346-17.371.256-8.264-.182-15.318-1.396-21.074-1.061-5.026-2.767-9.32-5.352-12.55v-.461c5.164-3.142 7.196-9.517 7.496-16.875l.002-.027.002-.047V70.428l-.08-.276-.08-.273c-2.949-10.134-8.833-17.128-17.901-19.95h-.003l-.29-.09-.289-.089h-26.607V49h-43ZM160.192 179.251l-.271.174c.107-.067.213-.136.317-.206l-.046.032Zm-6.969.157-.132-.02-.384-.07c.17.033.342.062.516.09Zm4.115-.876-.32.135a12.8 12.8 0 0 0 .32-.135ZM40.125 55.5c2.327 0 4.257.563 5.87 1.624 1.623 1.068 3.044 2.719 4.213 5.077 2.37 4.778 3.582 12.204 3.417 22.517v73.532c-.084 6.339-1.411 10.941-3.73 14.056-2.237 3.007-5.572 4.859-10.256 5.427-4.116-.557-7.078-2.372-9.1-5.405-2.117-3.175-3.333-7.883-3.414-14.353V84.953l-.002-.048c-.495-10.483.523-17.997 2.808-22.795 1.126-2.364 2.528-4.005 4.154-5.055 1.518-.98 3.347-1.521 5.562-1.555h.478Zm38.5 0c2.565 0 4.67.577 6.398 1.651 1.728 1.075 3.2 2.725 4.379 5.062 2.39 4.743 3.47 12.136 2.976 22.441l-.003.048v12.404l-8.75 5.147V84c0-6.36-.27-11.248-.84-14.587-.283-1.65-.663-3.075-1.209-4.139-.446-.87-1.254-1.945-2.571-2.212l-.705-2.41-.636 2.43c-1.282.297-2.057 1.366-2.477 2.23-.522 1.072-.865 2.502-1.104 4.152-.482 3.332-.623 8.202-.458 14.536v64.5c-.165 6.667-.024 11.782.456 15.272.238 1.729.577 3.213 1.088 4.318.398.86 1.156 1.992 2.458 2.316l.674 2.738.748-2.718c1.334-.295 2.123-1.433 2.546-2.3.535-1.098.911-2.577 1.192-4.306.569-3.497.838-8.628.838-15.32v-14.597l8.5 6.12v18.227c-.084 6.339-1.411 10.941-3.73 14.056-2.237 3.007-5.572 4.859-10.256 5.427-4.116-.557-7.078-2.372-9.1-5.405-2.117-3.175-3.333-7.883-3.414-14.353V84.953l-.002-.048c-.495-10.483.523-17.997 2.808-22.795 1.126-2.364 2.528-4.005 4.154-5.055 1.518-.98 3.347-1.521 5.562-1.555h.478Zm36.5 0c2.565 0 4.67.577 6.398 1.651 1.728 1.075 3.201 2.725 4.379 5.062 2.39 4.743 3.471 12.136 2.976 22.441l-.003.048v12.404l-8.75 5.147V84c0-6.36-.27-11.248-.841-14.587-.282-1.65-.662-3.075-1.208-4.139-.446-.87-1.254-1.945-2.571-2.212l-.705-2.41-.636 2.43c-1.282.297-2.057 1.366-2.477 2.23-.522 1.072-.865 2.502-1.104 4.152-.482 3.332-.623 8.202-.458 14.536v64.5c-.165 6.667-.024 11.782.456 15.272.238 1.729.577 3.213 1.088 4.318.398.86 1.156 1.992 2.458 2.316l.674 2.738.748-2.718c1.334-.295 2.123-1.433 2.546-2.3.535-1.098.911-2.577 1.192-4.306.569-3.497.838-8.628.838-15.32v-14.597l8.5 6.12v18.227c-.083 6.339-1.411 10.941-3.729 14.056-2.238 3.007-5.573 4.859-10.257 5.427-4.116-.557-7.078-2.372-9.1-5.405-2.117-3.175-3.333-7.883-3.414-14.353V84.953l-.002-.048c-.495-10.483.523-17.997 2.808-22.795 1.126-2.364 2.528-4.005 4.154-5.055 1.518-.98 3.347-1.521 5.562-1.555h.478Zm326.75 0c2.565 0 4.67.577 6.398 1.651 1.728 1.075 3.201 2.725 4.379 5.062 2.39 4.743 3.471 12.136 2.976 22.441l-.003.048v12.404l-8.75 5.147V84c0-6.36-.27-11.248-.841-14.587-.282-1.65-.662-3.075-1.208-4.139-.446-.87-1.254-1.945-2.571-2.212l-.705-2.41-.636 2.43c-1.282.297-2.057 1.366-2.477 2.23-.522 1.072-.865 2.502-1.104 4.152-.482 3.332-.623 8.202-.458 14.536v64.5c-.165 6.667-.024 11.782.456 15.272.238 1.729.577 3.213 1.088 4.318.398.86 1.156 1.992 2.458 2.316l.674 2.738.748-2.718c1.334-.295 2.123-1.433 2.546-2.3.535-1.098.911-2.577 1.192-4.306.569-3.497.838-8.628.838-15.32v-14.597l8.5 6.12v18.227c-.083 6.339-1.411 10.941-3.729 14.056-2.238 3.007-5.573 4.859-10.257 5.427-4.116-.557-7.078-2.372-9.1-5.405-2.117-3.175-3.333-7.883-3.414-14.353V84.953l-.002-.048c-.495-10.483.523-17.997 2.808-22.795 1.126-2.364 2.528-4.005 4.154-5.055 1.518-.98 3.347-1.521 5.562-1.555h.478Zm-292.5 0v94c-.165 6.585-.013 11.654.489 15.13.25 1.723.606 3.208 1.137 4.319.445.931 1.262 2.073 2.641 2.358l.624 2.159.635-2.151c1.32-.255 2.141-1.327 2.592-2.211.555-1.089.931-2.557 1.201-4.258.549-3.446.765-8.512.681-15.121V55.5h8.985c-1.005.36-1.9.924-2.619 1.75-1.28 1.472-1.699 3.426-1.616 5.518v95.956c-.081 6.167-1.119 10.664-2.909 13.697-1.687 2.858-4.097 4.516-7.37 5.058-3.518-.479-6.089-2.171-7.884-5.139-1.904-3.149-3.006-7.864-3.087-14.365V62.527c.087-2.08-.41-4.016-1.836-5.441-.743-.743-1.648-1.253-2.657-1.586h10.993ZM430.22 176.204c-.052-.06-.105-.119-.155-.18l-.076-.092c.076.092.153.182.231.272Zm-402.592-1.06c.255.349.52.684.795 1.006-.036-.042-.073-.083-.108-.126a15.232 15.232 0 0 1-.687-.88Zm38.5 0c.255.349.52.684.795 1.006-.036-.042-.073-.083-.108-.126a15.232 15.232 0 0 1-.687-.88Zm36.5 0c.255.349.52.684.795 1.006-.036-.042-.073-.083-.108-.126a16.168 16.168 0 0 1-.687-.88Zm-52.764.213-.054.051.1-.095-.046.044Zm38.5 0-.054.051.1-.095-.046.044Zm36.5 0-.054.051.099-.095-.045.044Zm326.75 0-.054.051.099-.095-.045.044ZM251.125 55v40.25h-.348c-.44-8.091-1.208-14.684-2.324-19.743-1.174-5.327-2.819-9.388-5.265-11.516l-3.313-2.88V168c0 2.302.53 4.377 1.763 6.058.321.437.68.833 1.072 1.192h-13.725a7.735 7.735 0 0 0 1.146-1.28c1.25-1.761 1.67-3.927 1.494-6.294V61.468l-3.21 2.44c-2.671 2.03-4.509 6.079-5.854 11.416-1.042 4.136-1.85 9.317-2.436 15.52V55h31Zm76 0v40.25h-.348c-.44-8.091-1.208-14.684-2.324-19.743-1.174-5.327-2.819-9.388-5.265-11.516l-3.313-2.88V168c0 2.302.53 4.377 1.763 6.058.321.437.68.833 1.072 1.192h-13.725a7.735 7.735 0 0 0 1.146-1.28c1.25-1.761 1.67-3.927 1.494-6.294V61.468l-3.21 2.44c-2.671 2.03-4.509 6.079-5.854 11.416-1.042 4.136-1.85 9.317-2.436 15.52V55h31ZM50.44 174.773l-.285.297c.114-.115.226-.233.336-.353l-.051.056Zm38.5 0-.285.297c.114-.115.226-.233.336-.353l-.051.056Zm36.5 0-.285.297c.114-.115.226-.233.336-.353l-.051.056Zm326.75 0-.285.297c.114-.115.226-.233.336-.353l-.051.056Zm-424.979-.226c.117.175.237.347.359.515l-.095-.13c-.09-.127-.177-.255-.264-.385Zm38.5 0c.117.175.237.347.359.515l-.095-.13c-.09-.127-.177-.255-.264-.385Zm36.5 0c.117.175.237.347.358.515l-.094-.13c-.09-.127-.177-.255-.264-.385ZM194.797 55.5a6.529 6.529 0 0 0-3.049 2.338c-1.171 1.639-1.623 3.78-1.623 6.162v.001l.063 105.125.002 2.136 2.13-.141c2.372-.157 4.329-1.609 5.914-3.68 1.584-2.072 2.979-4.99 4.235-8.633 2.175-6.314 4.053-15.179 5.656-26.537V175h-31.567c1.11-.399 2.093-1.028 2.885-1.933 1.269-1.45 1.834-3.361 1.93-5.476l.002-.045V63.962l-.001-.04c-.091-2.363-.595-4.469-1.766-6.05a6.253 6.253 0 0 0-3.233-2.29V55.5h18.422Zm164.009.25c6.5 2.12 11.061 7.141 13.569 15.543v27.664c-.331 7.93-2.716 11.547-6.111 12.639l-1.389.446v6.768l.564.581c2.135 2.207 3.832 5.756 4.917 10.897 1.08 5.122 1.517 11.658 1.27 19.65-.25 8.104-.13 14.234.391 18.315.256 2.009.63 3.707 1.21 4.921.29.609.708 1.258 1.337 1.726l.061.043V175h-13v-36.223c.084-6.131-.286-10.922-1.196-14.243-.454-1.656-1.085-3.113-1.998-4.188-.966-1.138-2.258-1.846-3.806-1.846h-2V167c0 2.188.255 4.114.935 5.588.463 1.003 1.152 1.834 2.065 2.35v.037l-16.5-.202v-.295c.137-.078.273-.162.403-.257.689-.506 1.177-1.192 1.526-1.918.677-1.412.983-3.301 1.07-5.473l.001-.04V64.5c0-2.607-.374-4.916-1.461-6.547-.574-.861-1.354-1.541-2.345-1.927a4.905 4.905 0 0 0-.694-.21v-.066h21.181Zm46.47 0c3.014 38.584 5.362 67.714 7.044 87.389.855 9.992 1.537 17.553 2.049 22.677.256 2.56.47 4.526.643 5.887.086.677.165 1.228.236 1.636.035.201.073.397.116.57.022.085.051.194.091.309.026.072.114.324.303.584.049.068.102.133.153.198h-12.238c.25-.522.455-1.083.623-1.66.382-1.312.647-2.918.82-4.779.347-3.726.342-8.714.006-14.919l-.101-1.892h-9.99l-.149 1.838c-.503 6.209-.617 11.208-.313 14.949.153 1.869.414 3.489.813 4.818.172.572.38 1.129.638 1.645h-8.819c.244-.257.368-.517.413-.616.064-.14.109-.272.139-.37.062-.2.112-.42.153-.629.085-.428.171-.994.259-1.676.178-1.374.384-3.349.616-5.911.466-5.131 1.047-12.697 1.746-22.69 1.374-19.671 3.201-48.792 5.483-87.358h9.266Zm76.599 0v.14c-.184.089-.365.194-.54.317-.796.56-1.308 1.356-1.634 2.187-.619 1.576-.739 3.705-.576 6.155v42.16l1.689.267c1.111.175 2.235.078 3.271-.431 1.034-.508 1.8-1.338 2.349-2.319 1.05-1.879 1.441-4.558 1.441-7.726V55.75h13.75v.136c-.64.475-1.097 1.142-1.401 1.743-.598 1.181-1.003 2.796-1.294 4.692-.589 3.84-.804 9.522-.679 16.963.247 14.659-2.032 25.641-6.588 33.182l-.288.476v5.868l.564.581c2.135 2.207 3.832 5.756 4.917 10.897 1.08 5.122 1.517 11.658 1.27 19.65-.25 8.104-.13 14.234.391 18.315.256 2.009.63 3.707 1.21 4.921.29.609.708 1.258 1.337 1.726l.061.043V175h-13v-36.223c.084-6.131-.286-10.922-1.196-14.243-.454-1.656-1.085-3.113-1.998-4.188-.966-1.138-2.258-1.846-3.806-1.846h-2V167c0 2.188.255 4.114.935 5.588.463 1.003 1.152 1.834 2.065 2.35v.037l-16.5-.202v-.295c.137-.078.273-.162.403-.257.689-.506 1.177-1.192 1.526-1.918.677-1.412.983-3.301 1.07-5.473l.001-.04V64.5c0-2.607-.374-4.916-1.461-6.547-.574-.861-1.354-1.541-2.345-1.927a4.905 4.905 0 0 0-.694-.21v-.066h17.75Zm94.181 0c6.5 2.12 11.061 7.141 13.569 15.543v27.664c-.331 7.93-2.716 11.547-6.112 12.639l-1.388.446v6.768l.563.581c2.136 2.207 3.833 5.756 4.918 10.897 1.08 5.122 1.517 11.658 1.27 19.65-.25 8.104-.13 14.234.391 18.315.256 2.009.63 3.707 1.21 4.921.29.609.708 1.258 1.337 1.726l.061.043V175h-13v-36.223c.084-6.131-.286-10.922-1.196-14.243-.454-1.656-1.085-3.113-1.998-4.188-.966-1.138-2.258-1.846-3.806-1.846h-2V167c0 2.188.255 4.114.935 5.588.463 1.003 1.152 1.834 2.065 2.35v.037l-16.5-.202v-.295c.137-.078.273-.162.403-.257.689-.506 1.177-1.192 1.526-1.918.677-1.412.983-3.301 1.07-5.473l.001-.04V64.5c0-2.607-.374-4.916-1.461-6.547-.574-.862-1.355-1.541-2.345-1.927a4.958 4.958 0 0 0-.694-.21v-.066h21.181Zm-30.931 0v33.933c-1.171-10.443-2.876-18.018-5.229-22.49-2.805-5.329-7.174-8.25-12.954-8.442l-2.067-.068v46.008l1.368.456c1.626.542 3.283.427 4.742-.545 1.351-.902 2.299-2.387 2.994-4.101.57-1.406 1.031-3.128 1.396-5.15v31.062c-.303-2.528-.747-4.728-1.346-6.588-1.226-3.81-3.279-6.703-6.562-7.49l-.592-.894v.763l-2-.428V172h2c5.015 0 9.172-3.323 12.576-8.822 2.656-4.29 4.424-10.848 5.424-19.499v31.071h-31.323c.285-.302.533-.637.743-1.001.908-1.573 1.165-3.694 1.08-6.052V61c0-1.733-.498-3.323-1.577-4.642a7.044 7.044 0 0 0-.562-.608h31.889Zm-89.723 118.168a18.495 18.495 0 0 1-.001 0l.259-.401a18.28 18.28 0 0 1-.258.401Zm-230.921-.612Zm76 0Zm37.166-.368a.036.036 0 0 1-.011.003l.015-.004-.004.001Zm126.5 0a.036.036 0 0 1-.011.003l.015-.004-.004.001Zm90.75 0a.036.036 0 0 1-.011.003l.015-.004-.004.001Zm-217.171-.022.006-.003.042-.011-.048.014Zm126.5 0 .006-.003.042-.011-.048.014Zm90.75 0 .006-.003.042-.011-.048.014Zm-526.474-.068-.066-.108-.21-.362c.09.159.183.315.276.47Zm38.5 0-.066-.108-.21-.362c.09.159.183.315.276.47Zm36.5 0-.066-.108-.209-.362c.089.159.182.315.275.47Zm326.75 0-.066-.108-.209-.362c.089.159.182.315.275.47Zm-91.888-.254-.004.002.115-.09-.111.088Zm126.5 0-.004.002.115-.09-.111.088Zm90.75 0-.004.002.115-.09-.111.088Zm-414.308-.603.186.425a22.341 22.341 0 0 1-.186-.425Zm-117.68.066c-1.668-3.947-2.434-8.682-2.5-14.006V85.095c-.446-9.563.273-17.5 2.5-23.457v110.419ZM39.163 61.582c-1.282.297-2.057 1.366-2.477 2.23-.522 1.072-.865 2.502-1.104 4.152-.482 3.332-.623 8.202-.458 14.536V147c-.165 6.667-.024 11.782.456 15.272.238 1.729.577 3.213 1.088 4.318.398.86 1.156 1.992 2.458 2.316l.674 2.738.748-2.718c1.334-.295 2.123-1.433 2.546-2.3.535-1.098.911-2.577 1.192-4.306.569-3.497.838-8.628.838-15.32V82.5c0-6.36-.27-11.248-.84-14.587-.283-1.65-.663-3.075-1.209-4.139-.446-.87-1.254-1.945-2.571-2.212l-.705-2.41-.636 2.43Zm316.069 109.825-.024-.058-.01-.029.034.087Zm126.5 0-.024-.058-.01-.029.034.087Zm90.75 0-.024-.058-.01-.029.034.087Zm-169.67-.587Zm60.942.077-.063.073a1.02 1.02 0 0 0 .088-.112c-.009.014-.016.028-.025.039Zm90.75 0-.063.073a1.02 1.02 0 0 0 .088-.112c-.009.014-.016.028-.025.039Zm-326.988-.752-.056.224c.022-.082.042-.166.061-.253l-.005.029Zm76 0-.056.224c.022-.082.042-.166.061-.253l-.005.029ZM507.625 59.3c1.005.337 1.394.693 1.529.858.063.077.11.157.146.264.037.112.075.293.075.578v106.813l.001.027.001.037v.011l.001.01c.036.97-.014 1.668-.092 2.149-.01.062-.023.119-.034.172l-1.502-.094-.625-.039v-1.465l-2.391.479-.009.001a23.654 23.654 0 0 1-.256-1.607c-.458-3.588-.595-9.328-.346-17.371.256-8.264-.182-15.318-1.396-21.074-1.061-5.026-2.767-9.32-5.352-12.55v-1.932c4.972-8.826 7.122-20.758 6.875-35.385-.124-7.367.101-12.63.61-15.95.122-.794.252-1.407.371-1.867l.26.018 2.134.143V59.3ZM140.479 169.737l.15.468a28.953 28.953 0 0 1-.144-.445l-.006-.023Zm258.299.43-.029-.19-.072-.552c.031.258.066.506.101.742Zm2.212-.692Zm-63.12-.339-.002-.001c-.015.08-.027.158-.043.233a21.625 21.625 0 0 0-.042.2c-.025.107-.055.208-.082.303a3.043 3.043 0 0 0-.894-.838 2.017 2.017 0 0 1 1.061.102c.017-.09.036-.183.052-.28-.016.097-.033.19-.05.281Zm126.5 0-.002-.001c-.015.08-.027.158-.043.233a21.625 21.625 0 0 0-.042.2c-.025.107-.055.208-.082.303a3.043 3.043 0 0 0-.894-.838 2.017 2.017 0 0 1 1.061.102c.017-.09.036-.183.052-.28-.016.097-.033.19-.05.281Zm90.75 0-.002-.001c-.015.08-.027.158-.043.233a21.625 21.625 0 0 0-.042.2c-.025.107-.055.208-.082.303a3.043 3.043 0 0 0-.894-.838 2.017 2.017 0 0 1 1.061.102c.017-.09.036-.183.052-.28-.016.097-.033.19-.05.281Zm-136.365.144-.057-.506-.166-1.561c.079.761.154 1.45.223 2.067Zm-276.39-.21c-.038-.124-.076-.25-.113-.377l-.127-.449c.077.281.157.556.24.826ZM462.427 62.075c.111.54.198 1.327.198 2.425v102.153c-.046 1.09-.155 1.847-.265 2.347h-2.495c.985-3.197 1.461-6.792 1.51-10.699v-21.35l-.831-.598-16.5-11.88-1.169-.842v-12.064l1.015-.596 16.75-9.854.985-.58V84.846c.429-9.08-.269-16.707-2.418-22.555l1.247-.207 1.899-.317c.024.09.05.192.074.308Zm90.75 0c.111.54.198 1.327.198 2.425v102.153c-.046 1.09-.156 1.847-.265 2.347h-2.235v-38.75h-9.5v-31.5h9.75V62.097l.079-.013 1.899-.317c.024.09.05.192.074.308ZM241.903 168.817c-.001-.028-.005-.056-.006-.085a10.525 10.525 0 0 1 .006.085Zm76 0c-.001-.028-.005-.056-.006-.085a10.525 10.525 0 0 1 .006.085Zm-239.44-.321-.088.004c.03 0 .062-.002.092-.005l-.004.001Zm36.5 0-.088.004a.928.928 0 0 0 .092-.005l-.004.001Zm239.672-.865-.005-.152-.005-.479c0 .216.005.426.01.631Zm126.5 0-.005-.152-.005-.479c0 .216.005.426.01.631Zm90.75 0-.005-.152-.005-.479c0 .216.005.426.01.631Zm-406.619-.459-.103.455c.05-.213.095-.428.141-.647-.014.064-.024.129-.038.192Zm-125.303-.176-.088.004c.03 0 .062-.002.092-.005l-.004.001Zm36.864-.124c-.01-.029-.023-.059-.034-.089l-.083-.236c.038.113.078.221.117.325Zm36.5 0-.034-.089-.083-.236c.038.113.078.221.117.325Zm326.75 0-.034-.089-.083-.236c.038.113.078.221.117.325Zm-401.754-1.511-.03-.078-.083-.236c.036.109.075.214.113.314Zm495.47-1.17a16.364 16.364 0 0 1-.451.502l.451-.502Zm-338.51.513-.227.308c.1-.131.199-.268.299-.41l-.072.102Zm-38.57-.135-.017.094.023-.132-.006.038ZM539.22 140c-.889 9.879-2.623 16.389-4.87 20.02-1.228 1.983-2.396 3.35-3.475 4.272V140h8.345Zm-342.797 22.853-.228.413a19.166 19.166 0 0 0 .228-.413Zm-42.866-1.233-.019-.231-.053-.767c.021.344.046.677.072.998Zm-130.376-1.698a51.856 51.856 0 0 1-.025-.625l.025.625Zm38.53.538c-.011-.178-.022-.358-.03-.538l-.026-.625c.014.392.033.78.055 1.163Zm36.5 0c-.011-.178-.022-.358-.03-.538l-.026-.625c.014.392.033.78.055 1.163Zm326.749 0c-.01-.178-.021-.358-.029-.538l-.026-.625c.014.392.033.78.055 1.163Zm-225.394-5.708-.217.719c.092-.3.181-.606.272-.917l-.055.198Zm215.839.704-.07-.777-.414-4.676c.17 1.937.332 3.754.484 5.453Zm-339.826-4.649.002-.179.044-2.128c-.02.792-.035 1.561-.046 2.307Zm36.5 0 .002-.179.044-2.128c-.02.792-.035 1.561-.046 2.307Zm326.755-.247.008-.528.033-1.532c-.017.705-.03 1.392-.041 2.06Zm-401.756-1.233.003-.199.044-2.128c-.02.8-.036 1.575-.047 2.327Zm360.551-46.944-2.375 40.5-.124 2.117h9.123l-.132-2.123-2.5-40.5-3.992.006ZM96.125 135.511l-15.33-11.038-1.17-.842v-12.064l1.015-.596 15.485-9.111v33.651Zm110.46-6.745c-.007.051-.015.103-.021.155a393.9 393.9 0 0 0 .311-2.421l-.29 2.266Zm320.5-14.466.007.002a5.269 5.269 0 0 0-.217-.052l.21.05Zm-159.111-1.237Zm217.25 0Zm-90.578-1.863c-.266.526-.54 1.04-.825 1.54h-.001c.285-.5.56-1.014.826-1.54Zm1.551-3.484ZM360.384 66.722c-1.421-2.013-3.497-2.947-5.948-2.713l-1.811.173v42.43l1.575.342c1.22.265 2.448.272 3.605-.125 1.176-.403 2.118-1.169 2.829-2.176 1.353-1.917 1.905-4.752 1.991-8.102V74.417l-.007-.083c-.26-3.127-.928-5.762-2.234-7.612Zm217.25 0c-1.421-2.013-3.497-2.947-5.948-2.713l-1.811.173v42.43l1.575.342c1.22.265 2.448.272 3.605-.125 1.176-.403 2.118-1.169 2.829-2.176 1.353-1.917 1.905-4.752 1.991-8.102V74.417l-.007-.083c-.26-3.127-.928-5.762-2.234-7.612Zm-79.365 34.271a54.99 54.99 0 0 0 0 0Zm-124.109.8Zm217.25 0ZM374.375 99a40.176 40.176 0 0 1-.038.756l.038-.756Zm217.25 0a40.176 40.176 0 0 1-.038.756l.038-.756Zm-108.014 1.129c-.054.315-.115.602-.183.862h-.001a10.572 10.572 0 0 0 .184-.862Zm50.357-9.19-.085.784c.036-.317.07-.64.102-.97l-.017.186Zm8.657-5.166a153.97 153.97 0 0 0 0 0Zm-8.288-.063-.009.177c.017-.373.033-.752.047-1.137l-.038.96Zm-89.468-3.308.006 1.598c0-.726-.004-1.431-.012-2.115.002.171.005.343.006.517Zm86.006-16.56c1.432.824 2.663 2.155 3.711 4.146 1.173 2.228 2.254 5.774 3.185 10.762h-6.896V65.842ZM81.429 75.799l.016.313-.023-.424.007.11Zm36.5 0c.006.103.01.208.015.313a52.744 52.744 0 0 0-.022-.424l.007.11Zm-75-1.5c.007.132.012.265.02.4-.01-.173-.017-.343-.027-.511l.007.11Zm348.348-6.314-.281 4.652.384-6.395-.103 1.743Zm-313.34 2.871.027-.24.01-.074-.037.314Zm36.5 0 .027-.24.01-.074-.037.314Zm326.75 0 .027-.24.01-.074-.037.314Zm-401.75-1.504c.009-.08.017-.158.027-.236l.01-.074-.037.31Zm335.998-1.538a37.564 37.564 0 0 0 0 0Zm-298.13-2.166c.015-.021.029-.042.044-.061l.102-.123a2.34 2.34 0 0 0-.146.183Zm36.5 0c.015-.021.029-.042.044-.061l.102-.123c-.05.056-.098.118-.146.183Zm326.75 0c.015-.021.029-.042.044-.061l.102-.123c-.05.056-.098.118-.146.183Zm-102.434-1.584.004.436c0-.181-.003-.356-.007-.525.001.03.003.059.003.089Zm126.5 0 .004.436c0-.181-.003-.356-.007-.525.001.03.003.059.003.089Zm-425.818.084.046-.061.102-.123c-.05.056-.1.118-.148.184Zm100.082-1.996-.008.253c.005-.102.006-.2.007-.295l.001.042Zm199.001-.481.052.275a8.587 8.587 0 0 0-.057-.295l.005.02Zm126.5 0 .052.275a8.587 8.587 0 0 0-.057-.295l.005.02Zm-10.199-.839.251.48a20.307 20.307 0 0 0-.305-.577l.054.097ZM51.5 60.366l.03.056a20.32 20.32 0 0 0-.212-.367c.061.103.123.206.182.311Zm431.859-.32.012-.043.053-.147a2.836 2.836 0 0 0-.065.19Zm-316.4-1.104a4.037 4.037 0 0 0-.114.18l.114-.18Zm26.277.263.025-.038.114-.167a5.835 5.835 0 0 0-.139.205Zm3.191-.04c.03-.01.06-.02.091-.028l.184-.047a3.859 3.859 0 0 0-.275.074Zm-25.539-.143.075-.007.257-.017a7.54 7.54 0 0 0-.332.024Zm-140.942-.788.036-.047.3-.374c-.114.137-.226.278-.336.421Zm38.5 0 .036-.047.3-.374c-.114.137-.225.278-.336.421Zm36.5 0 .036-.047.299-.374c-.113.137-.224.278-.335.421Zm326.75 0 .036-.047.299-.374c-.113.137-.224.278-.335.421Zm-62.702-.876Zm217.25 0Zm-495.105.09Zm36.5 0a17.061 17.061 0 0 0 0 0Zm326.75 0a17.061 17.061 0 0 0 0 0Zm-365.102-2.05Zm36.5 0Zm326.75 0ZM31.023 54.326Zm38.5 0Zm36.5 0Zm326.75 0Zm-401.239-.374.051-.036.33-.22c-.128.082-.255.169-.38.256Zm38.5 0 .051-.036.33-.22c-.129.082-.255.169-.38.256Zm36.5 0 .051-.036.33-.22c-.129.082-.255.169-.381.256Zm326.75 0 .051-.036.33-.22c-.129.082-.255.169-.381.256ZM34.799 52.298l.082-.029.379-.12c-.155.047-.308.096-.461.149Zm38.5 0 .082-.029.379-.12c-.155.047-.309.096-.461.149Zm36.5 0 .082-.029.379-.12c-.155.047-.309.096-.461.149Zm326.75 0 .082-.029.379-.12c-.155.047-.309.096-.461.149ZM157.09 161.32Zm.029-.341c-.005.073-.013.145-.019.216a63.527 63.527 0 0 0 .019-.216Zm340.316-56.865Zm-.285.918Zm-123.266-1.368c.018-.097.034-.196.051-.295-.017.099-.033.198-.051.295Zm217.25 0c.018-.097.034-.196.051-.295-.017.099-.033.198-.051.295Zm-216.971-1.887.068-.634c-.022.219-.046.436-.071.65.001-.005.003-.01.003-.016Zm217.25 0 .068-.634c-.022.219-.046.436-.071.65.001-.005.003-.01.003-.016Z"/></mask><g mask="url(#a)"><mask id="c" width="192" height="177" x="175" y="14" maskUnits="userSpaceOnUse" style="mask-type:alpha"><path fill="url(#b)" d="M175.625 14h191v177h-191z"/></mask><g mask="url(#c)"><path fill="url(#d)" d="M275.625 28c45.011 0 81.5 36.489 81.5 81.5 0 11.593-2.422 22.621-6.785 32.605a41.472 41.472 0 0 0 2.083-13.013c0-22.939-18.595-41.534-41.533-41.534-22.939 0-41.534 18.595-41.534 41.534 0 22.938 18.596 41.533 41.534 41.533 12.798 0 24.242-5.791 31.861-14.894C328.05 177.037 303.469 191 275.625 191c-45.011 0-81.5-36.489-81.5-81.5s36.489-81.5 81.5-81.5Z"/></g></g><path fill="#fff" d="M25.125 158V85c-1-21.167 4-31.667 15-31.5 10.667 0 15.834 10.417 15.5 31.25v73.5c-.166 13.167-5.5 20.333-16 21.5-9.5-1.167-14.333-8.417-14.5-21.75Zm12-11c-.333 13.333.584 20 2.75 20 2.167 0 3.25-6.667 3.25-20V82.5c0-12.667-1.083-19-3.25-19-2.166 0-3.083 6.333-2.75 19V147Zm26.5 11V85c-1-21.167 4-31.667 15-31.5 11.5 0 16.75 10.417 15.75 31.25v13.5l-12.75 7.5V84c0-12.667-1.083-19-3.25-19-2.166 0-3.083 6.333-2.75 19v64.5c-.333 13.333.584 20 2.75 20 2.167 0 3.25-6.667 3.25-20V130l12.5 9v19.25c-.166 13.167-5.5 20.333-16 21.5-9.5-1.167-14.333-8.417-14.5-21.75Zm36.5 0V85c-1-21.167 4-31.667 15-31.5 11.5 0 16.75 10.417 15.75 31.25v13.5l-12.75 7.5V84c0-12.667-1.083-19-3.25-19s-3.083 6.333-2.75 19v64.5c-.333 13.333.583 20 2.75 20s3.25-6.667 3.25-20V130l12.5 9v19.25c-.167 13.167-5.5 20.333-16 21.5-9.5-1.167-14.333-8.417-14.5-21.75Zm40.75 0V62.5c.167-3.5-1.667-5.333-5.5-5.5v-3.5h16v96c-.333 13.167.625 19.792 2.875 19.875 2.25.083 3.292-6.458 3.125-19.625V53.5h13.75V57c-3.5.167-5.167 2.083-5 5.75v96c-.167 12.667-4.25 19.583-12.25 20.75-8.5-1-12.833-8.167-13-21.5Zm38.5-94c-.167-4.333-1.833-6.583-5-6.75V53.5h22.75V57c-3.333.333-5 2.667-5 7l.063 105.125c6.291-.417 11.187-14.625 14.687-42.625h3.25V177h-36v-3.5c3.333-.333 5.083-2.333 5.25-6V64Zm38.75-11h35v44.25h-4.25c-.833-17.833-3.167-28.417-7-31.75V168c0 4 1.833 6.5 5.5 7.5v1.75h-23.25v-1.75c4-1 5.833-3.583 5.5-7.75V65.5c-4.167 3.167-6.833 13.75-8 31.75h-3.5V53Zm76 0h35v44.25h-4.25c-.833-17.833-3.167-28.417-7-31.75V168c0 4 1.833 6.5 5.5 7.5v1.75h-23.25v-1.75c4-1 5.833-3.583 5.5-7.75V65.5c-4.167 3.167-6.833 13.75-8 31.75h-3.5V53Zm46 11.5c0-5-1.5-7.25-4.5-6.75v-4h23.5c7.5 2.333 12.583 8.083 15.25 17.25v28c-.333 8.167-2.833 13-7.5 14.5v4.5c5 5.167 7.25 15.833 6.75 32s.5 24 3 23.5v3.5h-17v-38.25c.167-12.167-1.5-18.25-5-18.25V167c0 4.167 1 6.333 3 6.5v3.5l-20.5-.25V173c1.833 0 2.833-2.083 3-6.25V64.5Zm20.5 32v-22c-.5-6-2.5-8.833-6-8.5v39c3.833.833 5.833-2 6-8.5ZM397.25 143h4.875l-2.5-40.5-2.375 40.5Zm3.875 34v-1.75c2-2 2.667-9.167 2-21.5h-6.25c-1 12.333-.417 19.5 1.75 21.5V177h-16.25v-1.75c1.333-.167 2.458-.708 3.375-1.625.917-.917 3.708-40.875 8.375-119.875h13c6.167 79 9.583 118.958 10.25 119.875.667.917 1.667 1.458 3 1.625V177h-19.25Zm25.75-19V85c-1-21.167 4-31.667 15-31.5 11.5 0 16.75 10.417 15.75 31.25v13.5l-12.75 7.5V84c0-12.667-1.083-19-3.25-19s-3.083 6.333-2.75 19v64.5c-.333 13.333.583 20 2.75 20s3.25-6.667 3.25-20V130l12.5 9v19.25c-.167 13.167-5.5 20.333-16 21.5-9.5-1.167-14.333-8.417-14.5-21.75Zm59-61.5V53.75h17.75v3.5c-2.5-.167-3.625 7.167-3.375 22s-2.042 26.25-6.875 34.25v4.5c5 5.167 7.25 15.833 6.75 32s.5 24 3 23.5v3.5h-17v-38.25c.167-12.167-1.5-18.25-5-18.25V167c0 4.167 1 6.333 3 6.5v3.5l-20.5-.25V173c1.833 0 2.833-2.083 3-6.25V64.5c0-5-1.5-7.25-4.5-6.75v-4h21.75v3.75c-2.167-.167-3.083 2.167-2.75 7V105c3.167.5 4.75-2.333 4.75-8.5Zm27.5-35.5c0-2.667-1.5-4.5-4.5-5.5v-1.75h38.25v41h-3.5c-1.167-13-3-21.875-5.5-26.625s-6.25-7.208-11.25-7.375v42.5c4.5 1.5 7-4.667 7.5-18.5h3V136h-3.5c0-13.5-2.333-20.75-7-21.75V170c4 0 7.625-2.625 10.875-7.875s5.208-14.542 5.875-27.875h3.25v42.5h-37.25v-2.5c2.667.167 3.917-2 3.75-6.5V61Zm44 3.5c0-5-1.5-7.25-4.5-6.75v-4h23.5c7.5 2.333 12.583 8.083 15.25 17.25v28c-.333 8.167-2.833 13-7.5 14.5v4.5c5 5.167 7.25 15.833 6.75 32s.5 24 3 23.5v3.5h-17v-38.25c.167-12.167-1.5-18.25-5-18.25V167c0 4.167 1 6.333 3 6.5v3.5l-20.5-.25V173c1.833 0 2.833-2.083 3-6.25V64.5Zm20.5 32v-22c-.5-6-2.5-8.833-6-8.5v39c3.833.833 5.833-2 6-8.5ZM23.625 186h576v5h-576z"/><defs><linearGradient id="b" x1="271.125" x2="271.125" y1="14" y2="191" gradientUnits="userSpaceOnUse"><stop offset=".76" stop-color="#fff"/><stop offset=".923" stop-opacity="0"/></linearGradient><linearGradient id="d" x1="306.125" x2="232.625" y1="48.41" y2="175.715" gradientUnits="userSpaceOnUse"><stop stop-color="#2910A8"/><stop offset="1" stop-color="#73679F"/></linearGradient></defs></svg>